<?xml version="1.0" encoding="utf-8"?>
<!-- Generator: Adobe Illustrator 16.0.0, SVG Export Plug-In . SVG Version: 6.00 Build 0)  -->
<!DOCTYPE svg PUBLIC "-//W3C//DTD SVG 1.1//EN" "http://www.w3.org/Graphics/SVG/1.1/DTD/svg11.dtd">
<svg version="1.1" id="Capa_1" xmlns="http://www.w3.org/2000/svg" xmlns:xlink="http://www.w3.org/1999/xlink" x="0px" y="0px"
	 width="927.969px" height="927.969px" viewBox="0 0 927.969 927.969" enable-background="new 0 0 927.969 927.969"
	 xml:space="preserve">
<g>
	<g>
		<path fill="#6441A4" d="M765.111,752.115c-11.72,10.021-19.964,24.084-19.884,39.928c0.404,18.104,11.477,36.048,28.289,43.241
			c5.819,2.506,12.123,3.719,18.429,3.719c25.945,0,47.039-21.015,47.039-47.043c0-26.023-21.015-47.038-47.039-47.038
			c-1.131,0-2.264,0.081-3.314,0.16l-78.239-78.238l45.504-45.506c5.012-5.01,5.012-13.255,0-18.266l-18.023-17.942
			c-5.011-5.013-13.255-5.013-18.267,0L585.031,719.785c-5.011,5.01-5.011,13.256,0,18.267l18.024,18.024
			c5.011,5.011,13.254,5.011,18.266,0l45.505-45.506l64.176,64.176c0.08-0.08,0.08-0.162,0.162-0.243
			c0.565-0.809,1.13-1.696,1.697-2.506c2.424-3.232,4.931-6.142,7.598-8.647c4.688-4.365,10.104-8.325,16.004-11.074
			c3.879-2.021,8.083-3.637,12.285-4.85c2.99-0.889,4.767-1.213,4.767-1.213s-1.534,0.891-4.04,2.669
			C767.94,749.852,766.485,750.983,765.111,752.115z"/>
		<path fill="#6441A4" d="M141.056,319.618c2.183,9.052,7.437,17.134,14.873,22.792l429.507,325.323l29.098-29.098L266.822,267.808
			l370.827,347.71l30.067-30.066l-322.98-431.285c-5.738-7.679-13.983-13.013-23.357-15.195L103.877,89.264
			c-8.809-1.94-16.649,5.9-14.548,14.71L141.056,319.618z"/>
	</g>
</g>
</svg>
