<?xml version="1.0" encoding="utf-8"?>
<!-- Generator: Adobe Illustrator 16.0.0, SVG Export Plug-In . SVG Version: 6.00 Build 0)  -->
<!DOCTYPE svg PUBLIC "-//W3C//DTD SVG 1.1//EN" "http://www.w3.org/Graphics/SVG/1.1/DTD/svg11.dtd">
<svg version="1.1" id="Layer_1" xmlns="http://www.w3.org/2000/svg" xmlns:xlink="http://www.w3.org/1999/xlink" x="0px" y="0px"
	 width="16px" height="16px" viewBox="0 0 16 16" enable-background="new 0 0 16 16" xml:space="preserve">
<path d="M8,15c-3.866,0-7-3.134-7-7s3.134-7,7-7s7,3.134,7,7S11.866,15,8,15z M8,3C5.238,3,3,5.238,3,8c0,2.762,2.238,5,5,5
	c2.762,0,5-2.238,5-5C13,5.238,10.762,3,8,3z"/>
<path d="M5.558,4.582l5.861,5.86l-0.978,0.978l-5.86-5.861L5.558,4.582z M10.441,4.582l0.978,0.977l-5.861,5.861l-0.977-0.978
	L10.441,4.582z"/>
</svg>
